<svg id="svg" version="1.1" width="400" height="400" viewBox="0 0 400 400" xmlns="http://www.w3.org/2000/svg" xmlns:xlink="http://www.w3.org/1999/xlink"><g id="svgg"><path id="path0" d="M144.498 13.534 C 80.678 20.294,28.997 62.094,29.030 106.925 C 29.059 147.373,71.463 169.126,126.475 156.914 L 130.941 155.922 133.174 157.283 C 137.866 160.140,145.460 163.320,147.584 163.316 C 152.669 163.306,154.540 160.549,154.887 152.558 L 155.112 147.381 160.251 144.874 C 209.412 120.893,235.076 72.769,215.813 40.685 C 203.947 20.921,175.827 10.216,144.498 13.534 M167.943 23.404 C 191.888 27.024,207.323 38.706,211.522 56.389 C 218.135 84.234,191.216 120.987,151.196 138.750 C 146.156 140.987,146.212 140.955,145.768 141.901 C 145.522 142.426,145.351 144.455,145.316 147.280 C 145.285 149.775,145.156 151.920,145.029 152.047 C 144.725 152.351,142.056 151.028,137.134 148.134 C 132.436 145.371,132.942 145.422,126.272 147.039 C 53.287 164.730,12.069 115.068,57.642 64.349 C 82.389 36.808,132.806 18.092,167.943 23.404 M109.054 55.288 C 105.565 56.585,105.138 57.386,100.854 70.654 C 97.886 79.846,97.254 81.514,96.711 81.597 C 96.359 81.651,93.868 81.407,91.177 81.054 C 80.970 79.715,76.288 79.350,74.578 79.760 C 72.093 80.356,70.186 82.720,70.177 85.214 C 70.165 88.716,84.131 119.566,86.489 121.245 C 88.214 122.473,90.426 122.423,94.737 121.056 C 98.270 119.937,109.919 116.601,141.148 107.765 C 149.219 105.482,156.780 103.336,157.952 102.996 C 162.386 101.711,162.861 98.621,161.257 81.490 C 159.894 66.923,158.679 60.427,157.039 58.943 C 153.452 55.697,150.136 57.573,137.556 69.965 C 135.561 71.930,134.814 72.484,134.480 72.245 C 134.237 72.072,132.624 70.703,130.895 69.203 C 115.469 55.824,112.572 53.979,109.054 55.288 M118.068 68.647 C 121.464 71.490,126.201 75.495,128.595 77.546 C 135.141 83.153,135.066 83.160,142.106 76.280 C 151.250 67.345,151.514 67.108,151.800 67.570 C 152.407 68.548,154.376 88.822,154.383 94.167 C 154.387 96.388,154.683 96.202,148.485 97.869 C 132.052 102.290,114.302 107.275,101.089 111.181 C 89.975 114.465,91.222 114.485,89.468 110.994 C 85.794 103.678,78.788 88.259,78.788 87.488 C 78.788 87.116,96.944 89.217,98.948 89.822 C 101.717 90.657,103.348 88.641,105.450 81.784 C 110.187 66.331,111.131 63.477,111.500 63.477 C 111.716 63.477,114.671 65.803,118.068 68.647 M187.000 138.094 C 183.845 139.564,181.908 141.990,178.068 149.282 C 173.614 157.739,165.788 176.475,163.010 185.333 C 160.649 192.860,160.662 192.829,159.949 192.785 C 159.609 192.764,157.177 192.494,154.545 192.185 C 112.830 187.284,71.104 209.687,52.953 246.730 C 31.225 291.075,43.752 334.862,85.697 361.180 L 87.023 362.012 86.112 364.846 C 82.840 375.022,82.480 388.408,85.198 398.804 L 85.511 400.000 89.761 400.000 L 94.010 400.000 93.117 396.337 C 84.533 361.147,113.860 320.778,158.918 305.762 C 194.816 293.798,243.098 296.130,273.116 311.279 C 310.030 329.906,330.252 364.146,323.799 397.093 L 323.212 400.087 328.353 399.912 C 364.749 398.673,386.047 370.103,380.719 329.665 C 376.093 294.554,356.264 267.316,328.469 257.893 C 325.182 256.778,325.172 256.747,327.231 253.947 C 343.744 231.491,355.228 204.182,351.419 196.427 C 347.950 189.362,330.805 184.293,309.181 183.938 C 306.511 183.894,304.273 183.794,304.208 183.716 C 304.143 183.637,301.680 178.836,298.734 173.046 C 281.039 138.272,284.548 140.368,258.692 149.134 C 253.692 150.829,246.085 153.582,241.786 155.251 C 237.488 156.920,232.290 158.930,230.235 159.718 L 226.498 161.150 222.420 157.578 C 213.851 150.073,202.403 142.055,195.694 138.859 C 192.495 137.336,189.241 137.050,187.000 138.094 M196.066 149.459 C 204.328 154.421,212.740 160.755,219.928 167.427 C 224.573 171.739,224.307 171.694,230.327 169.196 C 232.682 168.219,235.470 167.091,236.523 166.690 C 237.576 166.288,240.734 165.065,243.541 163.971 C 252.416 160.512,269.540 154.596,274.885 153.141 L 277.202 152.510 277.991 153.209 C 278.838 153.959,280.939 157.921,291.512 178.708 C 295.993 187.518,298.522 192.154,298.983 192.407 C 299.459 192.667,302.114 192.811,307.337 192.860 C 322.424 192.999,337.737 195.925,342.536 199.585 C 346.825 202.857,332.252 232.570,315.502 254.705 C 309.747 262.311,301.030 272.408,300.221 272.408 C 298.691 272.408,278.362 259.053,256.393 243.616 C 212.184 212.551,191.048 200.601,171.355 195.535 C 169.417 195.036,169.415 195.063,171.938 187.518 C 176.596 173.595,183.504 157.571,188.470 149.173 C 190.320 146.044,190.383 146.047,196.066 149.459 M149.920 200.964 C 176.122 202.937,198.560 213.892,249.123 249.399 C 272.946 266.129,298.830 282.297,301.789 282.297 C 303.348 282.297,308.275 277.219,316.721 266.906 C 319.067 264.042,318.816 264.092,323.295 265.575 C 353.139 275.457,372.489 305.630,372.374 342.105 C 372.289 368.697,359.401 385.963,336.423 390.269 C 332.791 390.950,333.014 391.326,333.014 384.522 C 333.014 341.475,293.341 301.953,241.786 293.642 C 174.666 282.822,115.288 305.562,92.544 350.798 C 90.951 353.966,91.189 353.947,87.065 351.252 C 49.289 326.573,40.841 280.405,66.897 241.036 C 84.453 214.511,117.568 198.528,149.920 200.964 M145.782 326.870 C 135.894 330.360,134.392 357.362,143.857 361.480 C 151.223 364.685,157.060 358.271,158.259 345.655 C 159.557 331.993,154.185 323.904,145.782 326.870 M264.308 326.816 C 254.586 330.379,254.061 356.834,263.624 361.287 C 271.576 364.990,277.371 357.748,277.315 344.179 C 277.260 330.854,272.097 323.962,264.308 326.816 M234.069 362.214 C 233.579 362.481,232.759 363.534,232.157 364.674 C 224.779 378.632,197.319 378.853,190.545 365.009 C 188.972 361.794,186.916 361.042,184.983 362.974 C 183.002 364.955,184.333 368.378,188.836 372.885 C 202.234 386.293,229.298 383.691,237.403 368.215 C 239.698 363.832,237.704 360.241,234.069 362.214 " stroke="none" fill="#070707" fill-rule="evenodd"></path><path id="path1" d="M0.000 200.000 L 0.000 400.000 42.777 400.000 C 80.353 400.000,85.533 399.943,85.374 399.529 C 82.506 392.054,82.870 374.928,86.112 364.846 L 87.023 362.012 85.697 361.180 C 43.752 334.862,31.225 291.075,52.953 246.730 C 71.104 209.687,112.830 187.284,154.545 192.185 C 157.177 192.494,159.609 192.764,159.949 192.785 C 160.662 192.829,160.649 192.860,163.010 185.333 C 166.978 172.683,176.740 150.582,181.696 143.028 C 185.408 137.370,189.805 136.061,195.694 138.861 C 202.389 142.045,213.847 150.069,222.420 157.578 L 226.498 161.150 230.235 159.718 C 232.290 158.930,237.488 156.920,241.786 155.251 C 255.911 149.766,275.012 143.541,277.716 143.541 C 279.405 143.541,281.825 144.424,283.377 145.608 C 285.534 147.253,286.358 148.726,298.734 173.046 C 301.680 178.836,304.143 183.637,304.208 183.716 C 304.273 183.794,306.511 183.894,309.181 183.938 C 330.805 184.293,347.950 189.362,351.419 196.427 C 355.228 204.182,343.744 231.491,327.231 253.947 C 325.172 256.747,325.182 256.778,328.469 257.893 C 341.041 262.155,354.603 272.244,363.092 283.651 C 378.070 303.776,384.842 334.412,379.720 358.876 C 375.017 381.340,356.673 397.189,332.376 399.779 C 331.762 399.844,346.726 399.921,365.630 399.949 L 400.000 400.000 400.000 200.000 L 400.000 0.000 200.000 0.000 L 0.000 0.000 0.000 200.000 M169.697 13.991 C 191.687 17.271,207.117 26.202,215.813 40.685 C 235.076 72.769,209.412 120.893,160.251 144.874 L 155.112 147.381 154.887 152.558 C 154.341 165.124,148.230 166.454,133.174 157.283 L 130.941 155.922 126.475 156.914 C 71.463 169.126,29.059 147.373,29.030 106.925 C 28.997 62.094,80.678 20.294,144.498 13.534 C 150.400 12.909,164.109 13.158,169.697 13.991 M145.136 22.979 C 112.444 26.058,76.982 42.825,57.642 64.349 C 12.069 115.068,53.287 164.730,126.272 147.039 C 132.942 145.422,132.436 145.371,137.134 148.134 C 142.056 151.028,144.725 152.351,145.029 152.047 C 145.156 151.920,145.285 149.775,145.316 147.280 C 145.351 144.455,145.522 142.426,145.768 141.901 C 146.212 140.955,146.156 140.987,151.196 138.750 C 193.967 119.765,220.810 80.077,210.109 51.646 C 202.519 31.481,176.546 20.022,145.136 22.979 M114.123 55.785 C 116.107 56.797,122.340 61.784,130.895 69.203 C 132.624 70.703,134.237 72.072,134.480 72.245 C 134.814 72.484,135.561 71.930,137.556 69.965 C 150.136 57.573,153.452 55.697,157.039 58.943 C 158.679 60.427,159.894 66.923,161.257 81.490 C 162.861 98.621,162.386 101.711,157.952 102.996 C 156.780 103.336,149.219 105.482,141.148 107.765 C 109.919 116.601,98.270 119.937,94.737 121.056 C 90.426 122.423,88.214 122.473,86.489 121.245 C 84.131 119.566,70.165 88.716,70.177 85.214 C 70.186 82.720,72.093 80.356,74.578 79.760 C 76.288 79.350,80.970 79.715,91.177 81.054 C 93.868 81.407,96.359 81.651,96.711 81.597 C 97.254 81.514,97.886 79.846,100.854 70.654 C 102.780 64.689,104.704 59.208,105.130 58.474 C 106.995 55.257,110.837 54.108,114.123 55.785 M109.154 69.777 C 108.079 73.242,106.412 78.645,105.450 81.784 C 103.348 88.641,101.717 90.657,98.948 89.822 C 96.944 89.217,78.788 87.116,78.788 87.488 C 78.788 88.259,85.794 103.678,89.468 110.994 C 91.222 114.485,89.975 114.465,101.089 111.181 C 114.302 107.275,132.052 102.290,148.485 97.869 C 154.683 96.202,154.387 96.388,154.383 94.167 C 154.376 88.822,152.407 68.548,151.800 67.570 C 151.514 67.108,151.250 67.345,142.106 76.280 C 135.066 83.160,135.141 83.153,128.595 77.546 C 119.403 69.671,111.877 63.477,111.500 63.477 C 111.269 63.477,110.306 66.063,109.154 69.777 M188.470 149.173 C 183.504 157.571,176.596 173.595,171.938 187.518 C 169.415 195.063,169.417 195.036,171.355 195.535 C 191.048 200.601,212.184 212.551,256.393 243.616 C 278.362 259.053,298.691 272.408,300.221 272.408 C 300.485 272.408,302.129 270.793,303.873 268.820 C 321.749 248.596,335.851 225.934,341.934 207.656 C 344.394 200.262,344.244 199.824,338.520 197.639 C 330.464 194.565,320.107 192.978,307.337 192.860 C 302.114 192.811,299.459 192.667,298.983 192.407 C 298.522 192.154,295.993 187.518,291.512 178.708 C 280.939 157.921,278.838 153.959,277.991 153.209 L 277.202 152.510 274.885 153.141 C 269.540 154.596,252.416 160.512,243.541 163.971 C 240.734 165.065,237.576 166.288,236.523 166.690 C 235.470 167.091,232.682 168.219,230.327 169.196 C 224.307 171.694,224.573 171.739,219.928 167.427 C 212.740 160.755,204.328 154.421,196.066 149.459 C 190.383 146.047,190.320 146.044,188.470 149.173 M134.653 201.133 C 92.877 205.271,58.912 236.767,52.460 277.352 C 47.972 305.586,61.550 334.583,87.065 351.252 C 91.189 353.947,90.951 353.966,92.544 350.798 C 106.985 322.077,137.865 300.846,174.960 294.136 C 198.880 289.809,228.620 290.301,250.895 295.391 C 297.513 306.044,333.014 344.577,333.014 384.522 C 333.014 391.326,332.791 390.950,336.423 390.269 C 359.401 385.963,372.289 368.697,372.374 342.105 C 372.489 305.630,353.139 275.457,323.295 265.575 C 318.816 264.092,319.067 264.042,316.721 266.906 C 308.275 277.219,303.348 282.297,301.789 282.297 C 298.830 282.297,272.946 266.129,249.123 249.399 C 191.014 208.593,165.968 198.032,134.653 201.133 M196.491 298.588 C 156.929 301.508,126.668 316.204,107.215 341.946 C 93.619 359.937,88.798 378.463,93.089 396.237 L 93.959 399.841 208.619 399.841 L 323.278 399.841 323.829 396.970 C 331.752 355.703,297.653 313.494,247.209 302.125 C 233.177 298.963,211.705 297.465,196.491 298.588 M152.315 327.066 C 161.293 331.247,160.321 356.716,151.010 361.271 C 145.440 363.996,139.905 360.641,138.339 353.589 C 134.773 337.541,142.662 322.571,152.315 327.066 M270.730 327.131 C 280.272 331.886,279.650 358.750,269.932 361.662 C 261.920 364.063,256.984 357.398,256.984 344.179 C 256.984 330.673,262.962 323.260,270.730 327.131 M237.008 362.204 C 242.240 364.910,233.474 376.017,223.253 379.634 C 215.531 382.367,204.937 382.121,197.981 379.048 C 188.650 374.925,181.668 366.290,184.983 362.974 C 186.916 361.042,188.972 361.794,190.545 365.009 C 197.319 378.853,224.779 378.632,232.157 364.674 C 233.608 361.929,235.053 361.193,237.008 362.204 " stroke="none" fill="#fbfbfb" fill-rule="evenodd"></path></g></svg>